<?xml version="1.0" encoding="UTF-8"?>
<svg id="filter-elastoui-24px" xmlns="http://www.w3.org/2000/svg" version="1.1" viewBox="0 0 24 24">
  <!-- ElastoUI.com  -->
  <path d="M4,7.75c1.8114014,0,3.3259277-1.2906494,3.6741943-3h15.3258057c.4140625,0,.75-.3359375.75-.75s-.3359375-.75-.75-.75H7.6741943c-.3482666-1.7093506-1.862793-3-3.6741943-3C1.9316406.25.25,1.9326172.25,4s1.6816406,3.75,3.75,3.75ZM4,1.75c1.2402344,0,2.25,1.0097656,2.25,2.25s-1.0097656,2.25-2.25,2.25-2.25-1.0097656-2.25-2.25,1.0097656-2.25,2.25-2.25ZM23,19.25H7.6741943c-.3482666-1.7093506-1.862793-3-3.6741943-3-2.0683594,0-3.75,1.6826172-3.75,3.75s1.6816406,3.75,3.75,3.75c1.8114014,0,3.3259277-1.2906494,3.6741943-3h15.3258057c.4140625,0,.75-.3359375.75-.75s-.3359375-.75-.75-.75ZM4,22.25c-1.2402344,0-2.25-1.0097656-2.25-2.25s1.0097656-2.25,2.25-2.25,2.25,1.0097656,2.25,2.25-1.0097656,2.25-2.25,2.25ZM23,11.25h-3.3258057c-.3482666-1.7093506-1.862793-3-3.6741943-3s-3.3259277,1.2906494-3.6741943,3H1c-.4140625,0-.75.3359375-.75.75s.3359375.75.75.75h11.3258057c.3482666,1.7093506,1.862793,3,3.6741943,3s3.3259277-1.2906494,3.6741943-3h3.3258057c.4140625,0,.75-.3359375.75-.75s-.3359375-.75-.75-.75ZM16,14.25c-1.2402344,0-2.25-1.0097656-2.25-2.25s1.0097656-2.25,2.25-2.25,2.25,1.0097656,2.25,2.25-1.0097656,2.25-2.25,2.25Z" fill="#000000"/>
</svg>