<?xml version="1.0" encoding="UTF-8"?>
<svg id="search-elastoui-24px" xmlns="http://www.w3.org/2000/svg" version="1.1" viewBox="0 0 24 24">
  <!-- ElastoUI.com  -->
  <path d="M14,.25C8.6240234.25,4.25,4.6240234,4.25,10c0,2.4185181.8905029,4.6295166,2.3540039,6.3354492L.4697266,22.4697266c-.2929688.2929688-.2929688.7675781,0,1.0605469.1464844.1464844.3383789.2197266.5302734.2197266s.3837891-.0732422.5302734-.2197266l6.1342773-6.1342773c1.7059326,1.463501,3.9169312,2.3540039,6.3354492,2.3540039,5.3759766,0,9.75-4.3740234,9.75-9.75S19.3759766.25,14,.25ZM14,18.25c-4.5488281,0-8.25-3.7011719-8.25-8.25S9.4511719,1.75,14,1.75s8.25,3.7011719,8.25,8.25-3.7011719,8.25-8.25,8.25Z" fill="#000000" opacity=".99"/>
</svg>