<?xml version="1.0" encoding="UTF-8"?>
<svg id="grid-menu-2-elastoui-24px" xmlns="http://www.w3.org/2000/svg" version="1.1" viewBox="0 0 24 24">
  <!-- ElastoUI.com  -->
  <path d="M6,.25H1c-.4140625,0-.75.3359375-.75.75v5c0,.4140625.3359375.75.75.75h5c.4140625,0,.75-.3359375.75-.75V1c0-.4140625-.3359375-.75-.75-.75ZM5.25,5.25H1.75V1.75h3.5v3.5ZM14.5.25h-5c-.4140625,0-.75.3359375-.75.75v5c0,.4140625.3359375.75.75.75h5c.4140625,0,.75-.3359375.75-.75V1c0-.4140625-.3359375-.75-.75-.75ZM13.75,5.25h-3.5V1.75h3.5v3.5ZM23,.25h-5c-.4140625,0-.75.3359375-.75.75v5c0,.4140625.3359375.75.75.75h5c.4140625,0,.75-.3359375.75-.75V1c0-.4140625-.3359375-.75-.75-.75ZM22.25,5.25h-3.5V1.75h3.5v3.5ZM6,8.75H1c-.4140625,0-.75.3359375-.75.75v5c0,.4140625.3359375.75.75.75h5c.4140625,0,.75-.3359375.75-.75v-5c0-.4140625-.3359375-.75-.75-.75ZM5.25,13.75H1.75v-3.5h3.5v3.5ZM14.5,8.75h-5c-.4140625,0-.75.3359375-.75.75v5c0,.4140625.3359375.75.75.75h5c.4140625,0,.75-.3359375.75-.75v-5c0-.4140625-.3359375-.75-.75-.75ZM13.75,13.75h-3.5v-3.5h3.5v3.5ZM23,8.75h-5c-.4140625,0-.75.3359375-.75.75v5c0,.4140625.3359375.75.75.75h5c.4140625,0,.75-.3359375.75-.75v-5c0-.4140625-.3359375-.75-.75-.75ZM22.25,13.75h-3.5v-3.5h3.5v3.5ZM6,17.25H1c-.4140625,0-.75.3359375-.75.75v5c0,.4140625.3359375.75.75.75h5c.4140625,0,.75-.3359375.75-.75v-5c0-.4140625-.3359375-.75-.75-.75ZM5.25,22.25H1.75v-3.5h3.5v3.5ZM14.5,17.25h-5c-.4140625,0-.75.3359375-.75.75v5c0,.4140625.3359375.75.75.75h5c.4140625,0,.75-.3359375.75-.75v-5c0-.4140625-.3359375-.75-.75-.75ZM13.75,22.25h-3.5v-3.5h3.5v3.5ZM23,17.25h-5c-.4140625,0-.75.3359375-.75.75v5c0,.4140625.3359375.75.75.75h5c.4140625,0,.75-.3359375.75-.75v-5c0-.4140625-.3359375-.75-.75-.75ZM22.25,22.25h-3.5v-3.5h3.5v3.5Z" fill="#000000"/>
</svg>