<?xml version="1.0" encoding="UTF-8"?>
<svg id="grid-menu-2-elastoui-24px" xmlns="http://www.w3.org/2000/svg" version="1.1" viewBox="0 0 24 24">
  <!-- Generator: Adobe Illustrator 30.3.0, SVG Export Plug-In . SVG Version: 2.1.3 Build 182)  -->
  <path d="M16.01,1.75v1.77h-1.77v-1.77h1.77M16.76.25h-3.28c-.41,0-.75.33-.75.75v3.28c0,.41.33.75.75.75h3.28c.41,0,.75-.33.75-.75V1c0-.41-.33-.75-.75-.75h0Z"/>
  <path d="M22.25,1.75v1.77h-1.77v-1.77h1.77M23,.25h-3.28c-.41,0-.75.33-.75.75v3.28c0,.41.33.75.75.75h3.28c.41,0,.75-.33.75-.75V1c0-.41-.33-.75-.75-.75h0Z"/>
  <path d="M9.77,1.75v1.77h-1.77v-1.77h1.77M10.52.25h-3.28c-.41,0-.75.33-.75.75v3.28c0,.41.33.75.75.75h3.28c.41,0,.75-.33.75-.75V1c0-.41-.33-.75-.75-.75h0Z"/>
  <path d="M3.52,1.75v1.77h-1.77v-1.77h1.77M4.28.25H1C.58.25.25.58.25,1v3.28c0,.41.33.75.75.75h3.28c.41,0,.75-.33.75-.75V1c0-.41-.33-.75-.75-.75h0Z"/>
  <path d="M16.01,7.99v1.77h-1.77v-1.77h1.77M16.76,6.49h-3.28c-.41,0-.75.33-.75.75v3.28c0,.41.33.75.75.75h3.28c.41,0,.75-.33.75-.75v-3.28c0-.41-.33-.75-.75-.75h0Z"/>
  <path d="M22.25,7.99v1.77h-1.77v-1.77h1.77M23,6.49h-3.28c-.41,0-.75.33-.75.75v3.28c0,.41.33.75.75.75h3.28c.41,0,.75-.33.75-.75v-3.28c0-.41-.33-.75-.75-.75h0Z"/>
  <path d="M9.77,7.99v1.77h-1.77v-1.77h1.77M10.52,6.49h-3.28c-.41,0-.75.33-.75.75v3.28c0,.41.33.75.75.75h3.28c.41,0,.75-.33.75-.75v-3.28c0-.41-.33-.75-.75-.75h0Z"/>
  <path d="M3.52,7.99v1.77h-1.77v-1.77h1.77M4.28,6.49H1c-.41,0-.75.33-.75.75v3.28c0,.41.33.75.75.75h3.28c.41,0,.75-.33.75-.75v-3.28c0-.41-.33-.75-.75-.75h0Z"/>
  <path d="M16.01,14.23v1.77h-1.77v-1.77h1.77M16.76,12.73h-3.28c-.41,0-.75.33-.75.75v3.28c0,.41.33.75.75.75h3.28c.41,0,.75-.33.75-.75v-3.28c0-.41-.33-.75-.75-.75h0Z"/>
  <path d="M22.25,14.23v1.77h-1.77v-1.77h1.77M23,12.73h-3.28c-.41,0-.75.33-.75.75v3.28c0,.41.33.75.75.75h3.28c.41,0,.75-.33.75-.75v-3.28c0-.41-.33-.75-.75-.75h0Z"/>
  <path d="M9.77,14.23v1.77h-1.77v-1.77h1.77M10.52,12.73h-3.28c-.41,0-.75.33-.75.75v3.28c0,.41.33.75.75.75h3.28c.41,0,.75-.33.75-.75v-3.28c0-.41-.33-.75-.75-.75h0Z"/>
  <path d="M3.52,14.23v1.77h-1.77v-1.77h1.77M4.28,12.73H1c-.41,0-.75.33-.75.75v3.28c0,.41.33.75.75.75h3.28c.41,0,.75-.33.75-.75v-3.28c0-.41-.33-.75-.75-.75h0Z"/>
  <path d="M16.01,20.48v1.77h-1.77v-1.77h1.77M16.76,18.98h-3.28c-.41,0-.75.33-.75.75v3.28c0,.41.33.75.75.75h3.28c.41,0,.75-.33.75-.75v-3.28c0-.41-.33-.75-.75-.75h0Z"/>
  <path d="M22.25,20.48v1.77h-1.77v-1.77h1.77M23,18.98h-3.28c-.41,0-.75.33-.75.75v3.28c0,.41.33.75.75.75h3.28c.41,0,.75-.33.75-.75v-3.28c0-.41-.33-.75-.75-.75h0Z"/>
  <path d="M9.77,20.48v1.77h-1.77v-1.77h1.77M10.52,18.98h-3.28c-.41,0-.75.33-.75.75v3.28c0,.41.33.75.75.75h3.28c.41,0,.75-.33.75-.75v-3.28c0-.41-.33-.75-.75-.75h0Z"/>
  <path d="M3.52,20.48v1.77h-1.77v-1.77h1.77M4.28,18.98H1c-.41,0-.75.33-.75.75v3.28c0,.41.33.75.75.75h3.28c.41,0,.75-.33.75-.75v-3.28c0-.41-.33-.75-.75-.75h0Z"/>
</svg>